<svg width="68" height="68" viewBox="0 0 68 68" fill="none" xmlns="http://www.w3.org/2000/svg">
<path d="M18.9545 38.9336L6.47009 24.6427L18.9545 10.3518C19.9633 9.1957 19.8456 7.44005 18.6895 6.43028C17.5334 5.42143 15.7787 5.54003 14.768 6.69524L0.686508 22.8148C-0.228836 23.8616 -0.228836 25.4246 0.686508 26.4714L14.7681 42.5911C15.3183 43.2192 16.0882 43.5417 16.8627 43.5417C17.5112 43.5417 18.1624 43.3156 18.6895 42.8552C19.8458 41.8454 19.9642 40.0897 18.9545 38.9336Z" fill="white"/>
<path d="M47.8032 21.8635H2.77923C1.24419 21.8635 0 23.1076 0 24.6428C0 26.1778 1.24419 27.422 2.77923 27.422H47.8032C55.875 27.422 62.4415 33.9884 62.4415 42.0594C62.4415 50.1304 55.875 56.6968 47.8032 56.6968H6.48497C4.94992 56.6968 3.70573 57.941 3.70573 59.476C3.70573 61.0111 4.94992 62.2553 6.48497 62.2553H47.8032C58.9387 62.2553 68 53.1949 68 42.0594C68 30.9239 58.9397 21.8635 47.8032 21.8635Z" fill="white"/>
</svg>
