<svg width="85" height="85" viewBox="0 0 85 85" fill="none" xmlns="http://www.w3.org/2000/svg">
<path d="M42.5 85C31.148 85 20.475 80.5792 12.4479 72.5521C4.42081 64.525 0 53.852 0 42.5C0 31.148 4.42081 20.475 12.4479 12.4479C20.475 4.42081 31.148 0 42.5 0C53.852 0 64.525 4.42081 72.5521 12.4479C80.5792 20.475 85 31.148 85 42.5C85 53.852 80.5792 64.525 72.5521 72.5521C64.525 80.5792 53.852 85 42.5 85ZM42.5 6.64062C22.7273 6.64062 6.64062 22.7273 6.64062 42.5C6.64062 62.2727 22.7273 78.3594 42.5 78.3594C62.2727 78.3594 78.3594 62.2727 78.3594 42.5C78.3594 22.7273 62.2727 6.64062 42.5 6.64062ZM65.4575 36.8555L60.7617 32.1597L42.5 50.4214L24.2383 32.1597L19.5425 36.8555L42.5 59.813L65.4575 36.8555Z" fill="black"/>
</svg>
