<svg width="116" height="116" viewBox="0 0 116 116" fill="none" xmlns="http://www.w3.org/2000/svg">
<path d="M84.5997 0H31.4001C14.0858 0 0 14.0858 0 31.4001V84.6006C0 101.914 14.0858 116 31.4001 116H84.6006C101.914 116 116 101.914 116 84.6006V31.4001C116 14.0858 101.914 0 84.5997 0V0ZM109.199 84.6006C109.199 98.1642 98.1642 109.199 84.5997 109.199H31.4001C17.8356 109.199 6.8004 98.1642 6.8004 84.6006V31.4001C6.8004 17.8356 17.8356 6.8004 31.4001 6.8004H84.6006C98.1642 6.8004 109.199 17.8356 109.199 31.4001V84.6006Z" fill="white"/>
<path d="M57.9999 26.2822C40.5103 26.2822 26.2821 40.5105 26.2821 58C26.2821 75.4896 40.5103 89.7178 57.9999 89.7178C75.4894 89.7178 89.7177 75.4896 89.7177 58C89.7177 40.5105 75.4894 26.2822 57.9999 26.2822ZM57.9999 82.9174C44.261 82.9174 33.0825 71.7398 33.0825 58C33.0825 44.2612 44.261 33.0826 57.9999 33.0826C71.7396 33.0826 82.9173 44.2612 82.9173 58C82.9173 71.7398 71.7396 82.9174 57.9999 82.9174Z" fill="white"/>
<path d="M90.4761 15.0176C85.3077 15.0176 81.1039 19.2223 81.1039 24.3898C81.1039 29.5583 85.3077 33.7629 90.4761 33.7629C95.6446 33.7629 99.8493 29.5583 99.8493 24.3898C99.8493 19.2214 95.6446 15.0176 90.4761 15.0176ZM90.4761 26.9616C89.0584 26.9616 87.9043 25.8076 87.9043 24.3898C87.9043 22.9711 89.0584 21.818 90.4761 21.818C91.8948 21.818 93.0489 22.9711 93.0489 24.3898C93.0489 25.8076 91.8948 26.9616 90.4761 26.9616Z" fill="white"/>
</svg>
