<?xml version="1.0" standalone="no"?>
<!DOCTYPE svg PUBLIC "-//W3C//DTD SVG 20010904//EN"
 "http://www.w3.org/TR/2001/REC-SVG-20010904/DTD/svg10.dtd">
<svg version="1.0" xmlns="http://www.w3.org/2000/svg"
 width="1200.000000pt" height="900.000000pt" viewBox="0 0 1200.000000 900.000000"
 preserveAspectRatio="xMidYMid meet">
<metadata>
Created by potrace 1.16, written by Peter Selinger 2001-2019
</metadata>
<g transform="translate(0.000000,900.000000) scale(0.100000,-0.100000)"
fill="#000000" stroke="none">
<path d="M7835 7988 c-51 -13 -97 -48 -127 -95 l-23 -38 -5 -746 -5 -746 -79
46 c-77 44 -83 46 -160 46 l-81 0 -130 -74 c-122 -69 -223 -127 -625 -359
-357 -206 -404 -236 -437 -280 -18 -24 -37 -61 -43 -82 -7 -27 -10 -261 -8
-712 l3 -673 33 -47 c48 -70 45 -68 507 -333 94 -54 224 -129 290 -168 325
-189 402 -229 463 -234 92 -9 103 -4 482 215 91 52 236 136 323 186 371 214
434 253 474 294 79 80 74 -43 71 1712 l-3 1565 -27 45 c-14 25 -39 57 -55 72
-25 23 -256 159 -413 243 -30 16 -103 57 -162 91 -60 35 -130 67 -158 73 -57
12 -51 12 -105 -1z m-310 -2789 c50 -28 102 -60 118 -71 l27 -19 0 -138 0
-139 -112 -63 c-62 -35 -120 -64 -129 -63 -8 0 -66 29 -127 65 l-112 64 3 139
2 139 115 69 c63 37 117 68 120 68 3 0 46 -23 95 -51z"/>
<path d="M1610 6477 c-19 -7 -132 -69 -250 -137 -118 -68 -363 -208 -545 -312
-348 -198 -400 -237 -427 -316 -18 -54 -24 -1681 -7 -1767 11 -50 20 -67 59
-106 83 -83 172 -81 325 7 44 25 130 74 190 108 409 232 432 247 469 326 20
43 21 63 26 454 l5 410 119 69 120 70 54 -29 c29 -16 83 -47 120 -69 l67 -40
5 -415 5 -415 27 -45 c14 -25 37 -55 50 -67 23 -21 223 -141 388 -233 47 -26
136 -77 199 -114 121 -71 165 -84 246 -71 65 9 129 69 150 138 23 78 22 1698
-1 1777 -24 83 -88 137 -299 256 -232 131 -298 169 -480 274 -463 268 -433
253 -510 257 -42 2 -84 -2 -105 -10z"/>
<path d="M10234 6466 c-23 -7 -79 -36 -125 -63 -46 -28 -120 -70 -164 -95 -44
-24 -138 -78 -210 -120 -71 -42 -206 -120 -300 -173 -324 -187 -358 -208 -392
-253 -18 -23 -38 -59 -45 -80 -18 -53 -24 -1261 -7 -1347 13 -65 53 -132 97
-163 32 -23 320 -192 326 -192 3 0 74 -40 158 -89 150 -86 287 -165 498 -284
117 -66 173 -87 235 -87 73 0 70 -1 560 266 231 126 284 170 302 249 16 70 0
144 -41 189 -28 32 -202 139 -416 256 -47 26 -127 72 -179 102 l-93 56 73 42
c41 24 77 45 81 47 4 2 29 -9 55 -24 37 -21 60 -28 103 -27 67 0 115 21 320
141 491 286 518 305 543 388 17 55 16 425 -1 481 -6 23 -30 62 -52 86 -39 45
-62 60 -410 261 -85 49 -207 120 -270 157 -513 301 -535 311 -646 276z m246
-1316 l45 -26 3 -126 3 -125 -105 -62 c-58 -33 -111 -61 -118 -61 -7 0 -58 26
-113 58 l-100 57 -3 130 -2 130 107 62 108 62 65 -36 c36 -20 85 -49 110 -63z"/>
<path d="M4485 6461 c-16 -4 -48 -19 -70 -33 -22 -14 -98 -58 -170 -98 -71
-40 -177 -101 -235 -135 -58 -34 -143 -83 -190 -110 -266 -152 -443 -257 -474
-280 -43 -33 -74 -84 -92 -150 -18 -65 -20 -1234 -3 -1317 24 -114 52 -141
279 -273 74 -43 203 -117 285 -165 83 -48 177 -102 210 -120 33 -19 115 -67
182 -107 68 -40 125 -73 127 -73 3 0 28 -13 55 -30 28 -16 76 -37 107 -46 78
-23 153 -7 259 53 128 74 398 229 560 323 83 48 219 127 303 175 84 49 170
106 192 128 73 74 71 52 68 803 -3 745 1 701 -73 777 -27 28 -225 157 -241
157 -3 0 -74 40 -157 89 -84 48 -226 131 -317 183 -91 52 -225 130 -298 172
-128 74 -137 78 -205 81 -40 3 -85 1 -102 -4z m309 -260 c407 -233 864 -497
885 -511 22 -15 22 -16 -97 -230 -66 -118 -144 -260 -174 -314 -30 -55 -59
-101 -65 -103 -6 -2 -18 11 -27 29 -16 34 -40 68 -47 68 -2 0 -3 -243 -2 -539
2 -466 1 -540 -12 -551 -8 -7 -15 -9 -15 -6 0 4 -9 -1 -19 -11 -17 -16 -152
-95 -519 -306 -56 -32 -108 -57 -116 -54 -7 3 -57 85 -111 184 -54 98 -130
237 -170 308 -39 72 -161 292 -270 490 -109 198 -199 361 -200 363 -1 1 -64
-105 -140 -235 -76 -131 -168 -289 -204 -350 -45 -78 -68 -110 -76 -102 -16
16 -14 1284 2 1300 10 10 14 9 19 -4 3 -9 15 -17 26 -17 10 0 16 -4 13 -10 -3
-5 0 -7 8 -4 8 3 17 -2 20 -10 4 -9 3 -16 -2 -16 -4 0 -8 -7 -8 -16 0 -15 1
-15 12 0 12 15 13 15 19 0 3 -9 4 -20 0 -25 -3 -5 2 -9 10 -9 9 0 16 -5 16
-11 0 -11 80 -149 86 -149 4 0 -45 93 -133 254 -24 44 -40 83 -36 87 7 6 673
390 958 552 141 80 135 81 369 -52z"/>
<path d="M5835 3981 c-33 -10 -114 -49 -180 -87 -66 -39 -291 -168 -500 -288
-209 -120 -401 -234 -427 -253 -25 -18 -61 -55 -78 -81 -61 -93 -61 -84 -58
-793 l3 -644 23 -47 c50 -102 91 -135 332 -271 144 -81 228 -114 319 -125 49
-6 56 -10 59 -31 8 -57 25 -70 307 -237 156 -93 204 -112 295 -113 85 -1 153
22 279 95 64 37 145 84 181 104 36 20 139 80 230 132 91 52 242 139 335 193
182 104 246 156 292 239 l28 51 3 513 c1 281 4 512 5 512 2 0 21 -8 43 -19
138 -66 287 -39 398 72 44 44 58 67 75 122 25 78 26 120 7 192 -17 65 -43 106
-98 160 -74 72 -118 88 -233 88 -92 0 -104 -3 -153 -29 -29 -16 -71 -49 -93
-73 l-40 -43 -32 24 c-41 31 -171 109 -362 218 -82 47 -233 134 -335 193 -449
261 -475 270 -625 226z m295 -218 c69 -39 181 -103 250 -143 69 -40 247 -142
395 -227 282 -161 327 -195 345 -264 7 -25 10 -255 8 -646 -3 -558 -4 -611
-21 -640 -33 -61 1 -40 -662 -421 -71 -41 -187 -108 -257 -149 -251 -146 -248
-146 -475 -13 -87 51 -176 104 -197 117 l-39 25 83 39 c45 21 88 39 95 39 7 0
70 -34 139 -75 69 -41 134 -75 144 -75 10 0 63 26 118 58 54 32 207 121 339
196 320 184 515 296 543 313 l22 13 0 589 c0 548 -1 589 -17 603 -10 8 -61 39
-113 68 -52 30 -131 75 -175 100 -161 95 -697 401 -710 406 -7 3 -100 -45
-206 -107 -107 -62 -223 -129 -259 -149 -137 -77 -546 -313 -557 -323 -10 -7
-13 -137 -13 -591 0 -319 4 -586 8 -592 4 -6 76 -50 161 -99 131 -76 162 -89
209 -93 66 -6 109 13 138 61 18 30 19 62 24 622 l5 590 68 3 c42 2 74 -2 83
-9 12 -10 14 -103 14 -578 0 -341 -4 -591 -10 -630 -26 -155 -119 -231 -285
-231 -87 0 -158 23 -267 85 -43 25 -114 66 -158 91 -99 57 -135 96 -150 166
-8 38 -10 223 -8 643 l3 590 24 42 c13 22 35 50 50 60 24 19 429 254 571 333
36 20 108 61 160 92 145 85 303 175 320 181 8 4 42 5 75 4 54 -3 73 -10 185
-74z m-107 -310 c45 -25 145 -83 222 -128 77 -45 172 -99 210 -120 39 -21 102
-57 140 -80 39 -24 99 -58 135 -78 l65 -35 2 -58 c2 -50 1 -56 -10 -40 -75
118 -188 204 -312 238 -68 18 -108 21 -260 22 -225 0 -295 -16 -431 -103 -19
-13 -25 -10 -61 26 -50 50 -114 68 -218 61 -91 -6 -156 -36 -187 -86 l-23 -37
-3 -577 c-1 -318 -5 -578 -8 -578 -3 0 -52 27 -110 61 l-104 61 0 501 0 502
53 29 c28 16 106 61 172 100 66 38 154 89 195 112 128 71 373 212 405 233 17
11 33 20 38 20 4 1 44 -20 90 -46z m1502 -144 c92 -26 140 -94 133 -190 -15
-210 -312 -228 -358 -22 -21 93 39 191 131 213 48 11 49 11 94 -1z m-1124
-303 c158 -34 249 -120 280 -264 17 -79 13 -83 -78 -80 l-77 3 -17 43 c-41
114 -115 152 -293 153 -61 1 -124 -2 -141 -6 -110 -27 -167 -121 -114 -188 27
-35 84 -51 292 -82 212 -31 275 -47 352 -89 78 -43 113 -96 121 -187 9 -91
-13 -163 -70 -226 -83 -92 -215 -135 -416 -134 -251 1 -404 62 -474 190 -31
57 -50 158 -34 179 7 7 36 12 78 12 75 0 80 -4 99 -67 16 -56 55 -102 111
-127 64 -29 310 -36 396 -11 70 20 118 64 128 118 19 102 -72 147 -357 177
-311 32 -425 110 -427 291 -1 148 91 253 258 293 76 19 298 20 383 2z m-561
-1138 c108 -54 198 -71 385 -72 94 -1 186 2 205 7 20 4 30 4 25 -2 -10 -8
-366 -215 -470 -272 l-50 -28 -103 62 c-75 46 -101 66 -96 77 20 49 34 124 34
188 0 41 3 72 8 70 4 -1 32 -15 62 -30z"/>
<path d="M7415 3286 c-43 -18 -93 -79 -101 -122 -15 -80 47 -176 122 -190 111
-21 204 52 204 160 0 65 -32 116 -93 145 -49 24 -89 26 -132 7z m129 -88 c8
-22 6 -32 -9 -48 -13 -14 -16 -24 -8 -28 6 -4 14 -26 18 -49 6 -36 4 -43 -9
-43 -11 0 -16 9 -16 29 0 36 -25 63 -54 59 -17 -2 -22 -11 -24 -45 -2 -29 -8
-43 -18 -43 -11 0 -14 20 -14 100 l0 101 62 -3 c58 -3 63 -5 72 -30z"/>
</g>
</svg>
