<svg width="208" height="195" viewBox="0 0 208 195" fill="none" xmlns="http://www.w3.org/2000/svg">
<path d="M104.127 194.8C84.2938 194.8 66.4438 190.717 50.5772 182.55C34.9438 174.15 22.6938 162.6 13.8271 147.9C4.96048 133.2 0.527149 116.517 0.527149 97.85C0.527149 79.1833 4.96048 62.5 13.8271 47.8C22.6938 33.1 34.9438 21.6667 50.5772 13.5C66.4438 5.09999 84.2938 0.899999 104.127 0.899999C123.96 0.899999 141.694 5.09999 157.327 13.5C172.96 21.6667 185.21 33.1 194.077 47.8C202.944 62.5 207.377 79.1833 207.377 97.85C207.377 116.517 202.944 133.2 194.077 147.9C185.21 162.6 172.96 174.15 157.327 182.55C141.694 190.717 123.96 194.8 104.127 194.8ZM104.127 150C118.127 150 129.56 145.333 138.427 136C147.527 126.433 152.077 113.717 152.077 97.85C152.077 81.9833 147.527 69.3833 138.427 60.05C129.56 50.4833 118.127 45.7 104.127 45.7C90.1272 45.7 78.5772 50.4833 69.4772 60.05C60.3772 69.3833 55.8272 81.9833 55.8272 97.85C55.8272 113.717 60.3772 126.433 69.4772 136C78.5772 145.333 90.1272 150 104.127 150Z" fill="black" fill-opacity="0.2"/>
</svg>
