<svg width="118" height="119" viewBox="0 0 118 119" fill="none" xmlns="http://www.w3.org/2000/svg">
<g clip-path="url(#clip0)">
<path d="M117.026 15.6712C115.87 14.2485 113.953 13.7209 112.249 14.354L4.008 53.8785C1.84556 54.6726 0.327707 56.5984 0.0459229 58.9044C-0.23316 61.1995 0.767938 63.4264 2.6459 64.7082L18.1179 75.3805C19.6169 76.4148 21.5443 76.5257 23.1495 75.6697L56.7115 57.7864L30.5542 77.5218C29.3263 78.4488 28.5925 79.927 28.5925 81.4753V99.7561C28.5925 101.642 29.6161 103.369 31.2636 104.266C32.9138 105.163 34.907 105.074 36.4744 104.03L48.2292 96.1511L59.7886 104.115C60.8014 104.817 62.0078 105.186 63.225 105.186C63.6364 105.186 64.0496 105.143 64.4565 105.058C66.0797 104.716 67.5156 103.702 68.397 102.278L117.369 20.6817C118.322 19.1107 118.185 17.1003 117.026 15.6712ZM62.9666 97.8449L50.9957 89.5969C50.163 89.0219 49.2033 88.7345 48.2445 88.7345C47.3064 88.7345 46.3674 89.0101 45.5455 89.5614L35.5102 96.2875V82.5069L81.6985 47.6581C83.761 46.1017 84.2804 43.2689 82.9057 41.0694C81.5301 38.8698 78.7762 38.1266 76.4994 39.3401L21.0069 68.909L7.92057 59.8823L107.596 23.4862L62.9666 97.8449Z" fill="white"/>
</g>
<defs>
<clipPath id="clip0">
<path d="M0 50C0 22.3858 22.3858 0 50 0H68C95.6142 0 118 22.3858 118 50V119H0V50Z" fill="white"/>
</clipPath>
</defs>
</svg>
