<svg width="1508" height="989" viewBox="0 0 1508 989" fill="none" xmlns="http://www.w3.org/2000/svg">
<path d="M600.02 2.69997C620.7 2.69997 637.64 2.03998 650.84 0.719997V13.92C639.84 18.32 629.06 26.9 618.5 39.66C608.38 51.98 599.8 69.58 592.76 92.46L476.6 469.32C471.76 468.88 464.06 468.66 453.5 468.66C442.94 468.66 435.24 468.88 430.4 469.32L333.38 174.96L235.7 469.32C230.86 468.88 223.16 468.66 212.6 468.66C202.04 468.66 194.34 468.88 189.5 469.32L41.66 56.16C36.38 41.64 30 31.08 22.52 24.48C15.04 17.88 7.56 14.36 0.0799999 13.92V0.719997C26.48 2.03998 59.26 2.69997 98.42 2.69997C135.38 2.69997 162.44 2.03998 179.6 0.719997V13.92C164.2 16.12 156.5 24.7 156.5 39.66C156.5 46.7 158.48 56.6 162.44 69.36L258.8 348.54L325.46 151.86L291.8 49.56C287.4 36.8 282.12 28 275.96 23.16C270.24 17.88 263.42 14.8 255.5 13.92V0.719997C280.14 2.03998 311.6 2.69997 349.88 2.69997C393 2.69997 424.68 2.03998 444.92 0.719997V13.92C429.08 14.36 417.64 16.34 410.6 19.86C403.56 22.94 400.04 29.1 400.04 38.34C400.04 46.26 402.24 56.6 406.64 69.36L497.06 345.24L559.76 145.92C569.88 112.92 574.94 87.4 574.94 69.36C574.94 50.44 570.1 36.8 560.42 28.44C551.18 19.64 537.1 14.8 518.18 13.92V0.719997C548.1 2.03998 575.38 2.69997 600.02 2.69997ZM810.204 423.12C846.284 423.12 875.324 405.52 897.324 370.32L909.204 374.28C900.404 402.88 884.564 427.3 861.684 447.54C839.244 467.34 811.084 477.24 777.204 477.24C730.564 477.24 693.384 462.5 665.664 433.02C638.384 403.1 624.744 359.1 624.744 301.02C624.744 241.62 639.484 196.3 668.964 165.06C698.444 133.38 737.604 117.54 786.444 117.54C869.164 117.54 910.524 166.38 910.524 264.06H725.064C724.624 270.66 724.404 281 724.404 295.08C724.404 324.12 728.364 348.32 736.284 367.68C744.644 387.04 755.204 401.12 767.964 409.92C781.164 418.72 795.244 423.12 810.204 423.12ZM782.484 131.4C766.644 131.4 753.444 141.3 742.884 161.1C732.764 180.46 726.384 210.6 723.744 251.52H827.364C828.244 216.76 824.724 188.16 816.804 165.72C809.324 142.84 797.884 131.4 782.484 131.4ZM582.449 983.04C551.729 983.04 528.689 975.12 513.329 959.28C498.449 943.44 491.009 922.56 491.009 896.64C491.009 875.04 496.529 857.28 507.569 843.36C519.089 828.96 532.769 817.92 548.609 810.24C564.929 802.56 585.569 794.4 610.529 785.76C636.929 776.64 656.129 768.48 668.129 761.28C680.609 753.6 686.849 743.28 686.849 730.32V674.16C686.849 654 682.049 638.4 672.449 627.36C663.329 615.84 648.929 610.08 629.249 610.08C606.209 610.08 588.689 615.84 576.689 627.36C590.129 632.16 600.449 639.36 607.649 648.96C615.329 658.56 619.169 669.84 619.169 682.8C619.169 699.12 613.649 712.08 602.609 721.68C591.569 731.28 578.129 736.08 562.289 736.08C545.489 736.08 532.529 730.8 523.409 720.24C514.289 709.68 509.729 696.48 509.729 680.64C509.729 667.2 512.849 655.92 519.089 646.8C525.809 637.2 535.889 628.32 549.329 620.16C562.289 612.48 578.129 606.48 596.849 602.16C616.049 597.84 636.929 595.68 659.489 595.68C683.009 595.68 703.409 598.08 720.689 602.88C737.969 607.68 752.369 615.84 763.889 627.36C774.449 637.92 781.409 650.88 784.769 666.24C788.609 681.6 790.529 702.48 790.529 728.88V924.72C790.529 936.24 791.489 944.4 793.409 949.2C795.809 954 800.129 956.4 806.369 956.4C813.569 956.4 822.209 952.32 832.289 944.16L839.489 956.4C817.889 974.16 791.489 983.04 760.289 983.04C733.889 983.04 715.409 977.76 704.849 967.2C694.289 956.64 688.769 942.48 688.289 924.72C664.289 963.6 629.009 983.04 582.449 983.04ZM637.889 936.96C656.609 936.96 672.929 927.12 686.849 907.44V759.84C681.089 769.44 668.849 780 650.129 791.52C631.409 803.52 617.249 815.52 607.649 827.52C598.049 839.52 593.249 856.8 593.249 879.36C593.249 899.04 597.329 913.68 605.489 923.28C613.649 932.4 624.449 936.96 637.889 936.96ZM1107.75 595.68C1129.35 595.68 1145.67 602.16 1156.71 615.12C1167.75 628.08 1173.27 643.68 1173.27 661.92C1173.27 679.68 1167.99 694.32 1157.43 705.84C1147.35 716.88 1133.91 722.4 1117.11 722.4C1100.79 722.4 1087.83 718.32 1078.23 710.16C1068.63 701.52 1063.83 690.24 1063.83 676.32C1063.83 653.28 1074.39 634.56 1095.51 620.16C1093.59 619.68 1090.71 619.44 1086.87 619.44C1082.07 619.44 1078.23 619.92 1075.35 620.88C1057.11 623.76 1041.51 634.8 1028.55 654C1016.07 673.2 1009.83 692.88 1009.83 713.04V903.84C1009.83 925.92 1015.11 941.28 1025.67 949.92C1036.71 958.56 1053.99 962.88 1077.51 962.88V978C1070.79 978 1065.27 977.76 1060.95 977.28C1011.99 975.84 979.345 975.12 963.025 975.12C950.065 975.12 920.545 975.84 874.465 977.28C870.625 977.76 865.825 978 860.065 978V962.88C877.345 962.88 889.345 959.28 896.065 952.08C902.785 944.4 906.145 930.72 906.145 911.04V684.24C906.145 662.16 902.785 646.08 896.065 636C889.345 625.92 877.345 620.88 860.065 620.88V605.76C875.425 607.2 890.305 607.92 904.705 607.92C947.425 607.92 982.465 604.56 1009.83 597.84V664.8C1018.95 644.16 1032.15 627.6 1049.43 615.12C1066.71 602.16 1086.15 595.68 1107.75 595.68ZM1398 929.04C1437.36 929.04 1469.04 909.84 1493.04 871.44L1506 875.76C1496.4 906.96 1479.12 933.6 1454.16 955.68C1429.68 977.28 1398.96 988.08 1362 988.08C1311.12 988.08 1270.56 972 1240.32 939.84C1210.56 907.2 1195.68 859.2 1195.68 795.84C1195.68 731.04 1211.76 681.6 1243.92 647.52C1276.08 612.96 1318.8 595.68 1372.08 595.68C1462.32 595.68 1507.44 648.96 1507.44 755.52H1305.12C1304.64 762.72 1304.4 774 1304.4 789.36C1304.4 821.04 1308.72 847.44 1317.36 868.56C1326.48 889.68 1338 905.04 1351.92 914.64C1366.32 924.24 1381.68 929.04 1398 929.04ZM1367.76 610.8C1350.48 610.8 1336.08 621.6 1324.56 643.2C1313.52 664.32 1306.56 697.2 1303.68 741.84H1416.72C1417.68 703.92 1413.84 672.72 1405.2 648.24C1397.04 623.28 1384.56 610.8 1367.76 610.8Z" fill="black" fill-opacity="0.15"/>
</svg>
