<svg width="329" height="105" viewBox="0 0 329 105" fill="none" xmlns="http://www.w3.org/2000/svg">
<circle cx="126.5" cy="52.5" r="52.5" fill="#0021B6"/>
<path d="M167.25 69H162V25C162 20.588 158.861 17 155 17H98.9999C95.1394 17 91.9999 20.5878 91.9999 25V69H86.7499C85.7827 69 85 69.8944 85 70.9999V73C85 77.412 88.1393 81 92.0001 81H162C165.861 81 169 77.412 169 73V70.9999C169 69.8944 168.217 69 167.25 69ZM95.5 25C95.5 22.7951 97.0706 21.0001 98.9999 21.0001H155C156.929 21.0001 158.5 22.7951 158.5 25V69H135.75H118.25H95.5V25ZM162 76.9999H92.0001C90.0707 76.9999 88.5001 75.205 88.5001 73H93.7501H117.525L118.763 74.4141C119.091 74.7891 119.535 75 120 75H134C134.465 75 134.909 74.7891 135.237 74.4141L136.475 73H160.25H165.5C165.5 75.205 163.929 76.9999 162 76.9999Z" fill="white"/>
<path d="M15.3439 31H27.3039C31.0106 31 33.7839 31.5067 35.6239 32.52C37.4906 33.5067 38.4239 35.1867 38.4239 37.56C38.4239 41.2133 36.2239 43.4 31.8239 44.12V44.2C37.1572 44.8667 39.8239 47.1867 39.8239 51.16C39.8239 54.0667 38.7306 56.1067 36.5439 57.28C34.3572 58.4267 31.2106 59 27.1039 59H15.3439V58.24H17.9439V31.76H15.3439V31ZM25.7439 44.84V58.24H27.6239C29.0906 58.24 30.1172 57.7333 30.7039 56.72C31.2906 55.7067 31.5839 54.2133 31.5839 52.24V50.12C31.5839 48.36 31.2239 47.04 30.5039 46.16C29.7839 45.28 28.5039 44.84 26.6639 44.84H25.7439ZM25.7439 31.76V44.08H26.7839C28.1706 44.08 29.1306 43.6667 29.6639 42.84C30.2239 41.9867 30.5039 40.6933 30.5039 38.96V37.08C30.5039 35.1067 30.2639 33.7333 29.7839 32.96C29.3039 32.16 28.3839 31.76 27.0239 31.76H25.7439ZM55.7911 59.4C52.3511 59.4 49.7644 58.52 48.0311 56.76C46.3244 54.9733 45.4711 52.5067 45.4711 49.36C45.4711 46.1867 46.4311 43.76 48.3511 42.08C50.2978 40.4 52.7644 39.56 55.7511 39.56C61.8044 39.56 64.7111 42.6 64.4711 48.68H53.1911V50.24C53.1911 52.8533 53.5244 54.8267 54.1911 56.16C54.8578 57.4933 56.0178 58.16 57.6711 58.16C60.7644 58.16 62.7911 56.5067 63.7511 53.2L64.4711 53.32C63.9644 55.24 63.0444 56.7333 61.7111 57.8C60.4044 58.8667 58.4311 59.4 55.7911 59.4ZM53.2311 47.88H57.3511V45.92C57.3511 43.76 57.2178 42.2933 56.9511 41.52C56.7111 40.72 56.2044 40.32 55.4311 40.32C54.6844 40.32 54.1244 40.7467 53.7511 41.6C53.4044 42.4267 53.2311 43.8667 53.2311 45.92V47.88Z" fill="black"/>
<path d="M197.855 49.6H199.015V46.52C199.015 43.9867 198.869 42.2933 198.575 41.44C198.309 40.56 197.775 40.12 196.975 40.12C196.495 40.12 196.055 40.2533 195.655 40.52C195.282 40.76 195.095 41.1067 195.095 41.56C195.095 41.9867 195.175 42.4267 195.335 42.88H196.335C196.549 43.44 196.655 44.12 196.655 44.92C196.655 45.6933 196.322 46.3733 195.655 46.96C194.989 47.52 194.149 47.8 193.135 47.8C190.842 47.8 189.695 46.6933 189.695 44.48C189.695 41.2 192.482 39.56 198.055 39.56C201.229 39.56 203.415 40.1067 204.615 41.2C205.842 42.2667 206.455 44.24 206.455 47.12V55.24C206.455 56.6267 206.842 57.32 207.615 57.32C208.522 57.32 209.055 55.9467 209.215 53.2L209.815 53.24C209.709 55.5867 209.269 57.2 208.495 58.08C207.722 58.96 206.455 59.4 204.695 59.4C201.495 59.4 199.655 58.4133 199.175 56.44C198.829 57.4533 198.309 58.2 197.615 58.68C196.922 59.16 195.909 59.4 194.575 59.4C190.629 59.4 188.655 57.7867 188.655 54.56C188.655 52.6667 189.402 51.3733 190.895 50.68C192.415 49.96 194.735 49.6 197.855 49.6ZM196.255 54.52C196.255 55.9067 196.322 56.8 196.455 57.2C196.615 57.6 196.895 57.8 197.295 57.8C197.722 57.8 198.109 57.4667 198.455 56.8C198.829 56.1067 199.015 55.16 199.015 53.96V50.24H198.735C197.082 50.24 196.255 51.4533 196.255 53.88V54.52ZM214.289 39.96H223.929V43.64C224.355 42.4133 225.009 41.4267 225.889 40.68C226.769 39.9333 228.102 39.56 229.889 39.56C234.022 39.56 236.089 41.7867 236.089 46.24V58.28H238.329V59H227.009V58.28H228.649V45.28C228.649 43.68 228.542 42.6533 228.329 42.2C228.115 41.72 227.729 41.48 227.169 41.48C226.315 41.48 225.555 42.04 224.889 43.16C224.249 44.28 223.929 45.64 223.929 47.24V58.28H225.649V59H214.289V58.28H216.489V40.68H214.289V39.96ZM240.665 40.68V39.96H252.265V40.68H250.105L254.465 53.96L259.105 40.68H256.425V39.96H262.065V40.68H260.065L252.585 62.24C251.705 64.7467 250.718 66.4933 249.625 67.48C248.532 68.4933 247.198 69 245.625 69C244.052 69 242.812 68.64 241.905 67.92C240.998 67.2 240.545 66.28 240.545 65.16C240.545 64.04 240.838 63.1867 241.425 62.6C242.012 62.0133 242.785 61.72 243.745 61.72C245.958 61.72 247.065 62.64 247.065 64.48C247.065 64.88 246.985 65.36 246.825 65.92H245.425C245.212 66.5333 245.185 67.04 245.345 67.44C245.505 67.84 245.865 68.04 246.425 68.04C247.518 68.04 248.492 67.4933 249.345 66.4C250.198 65.3333 251.012 63.6933 251.785 61.48L252.665 59H249.145L242.305 40.68H240.665ZM274.543 49.6H275.703V46.52C275.703 43.9867 275.556 42.2933 275.263 41.44C274.996 40.56 274.463 40.12 273.663 40.12C273.183 40.12 272.743 40.2533 272.343 40.52C271.97 40.76 271.783 41.1067 271.783 41.56C271.783 41.9867 271.863 42.4267 272.023 42.88H273.023C273.236 43.44 273.343 44.12 273.343 44.92C273.343 45.6933 273.01 46.3733 272.343 46.96C271.676 47.52 270.836 47.8 269.823 47.8C267.53 47.8 266.383 46.6933 266.383 44.48C266.383 41.2 269.17 39.56 274.743 39.56C277.916 39.56 280.103 40.1067 281.303 41.2C282.53 42.2667 283.143 44.24 283.143 47.12V55.24C283.143 56.6267 283.53 57.32 284.303 57.32C285.21 57.32 285.743 55.9467 285.903 53.2L286.503 53.24C286.396 55.5867 285.956 57.2 285.183 58.08C284.41 58.96 283.143 59.4 281.383 59.4C278.183 59.4 276.343 58.4133 275.863 56.44C275.516 57.4533 274.996 58.2 274.303 58.68C273.61 59.16 272.596 59.4 271.263 59.4C267.316 59.4 265.343 57.7867 265.343 54.56C265.343 52.6667 266.09 51.3733 267.583 50.68C269.103 49.96 271.423 49.6 274.543 49.6ZM272.943 54.52C272.943 55.9067 273.01 56.8 273.143 57.2C273.303 57.6 273.583 57.8 273.983 57.8C274.41 57.8 274.796 57.4667 275.143 56.8C275.516 56.1067 275.703 55.16 275.703 53.96V50.24H275.423C273.77 50.24 272.943 51.4533 272.943 53.88V54.52ZM290.976 39.96H300.616V43.64C301.043 42.4133 301.696 41.4267 302.576 40.68C303.456 39.9333 304.789 39.56 306.576 39.56C310.709 39.56 312.776 41.7867 312.776 46.24V58.28H315.016V59H303.696V58.28H305.336V45.28C305.336 43.68 305.229 42.6533 305.016 42.2C304.803 41.72 304.416 41.48 303.856 41.48C303.003 41.48 302.243 42.04 301.576 43.16C300.936 44.28 300.616 45.64 300.616 47.24V58.28H302.336V59H290.976V58.28H293.176V40.68H290.976V39.96Z" fill="black"/>
<path d="M111.119 59.4H113.199C114.906 59.4 116.346 58.84 117.519 57.72C118.693 56.5733 119.386 54.7467 119.599 52.24H120.439C120.439 56.0267 120.493 58.6667 120.599 60.16C118.439 60.0533 115.879 60 112.919 60C110.306 60 107.533 60.0667 104.599 60.2L114.599 39.92H112.359C108.546 39.92 106.466 42.3067 106.119 47.08H105.279C105.279 43.2933 105.226 40.6533 105.119 39.16C107.279 39.2667 109.839 39.32 112.799 39.32C115.413 39.32 118.186 39.2533 121.119 39.12L111.119 59.4ZM135.385 42.48C136.585 40 138.758 38.76 141.905 38.76C143.985 38.76 145.451 39.28 146.305 40.32C146.758 40.8267 147.078 41.4933 147.265 42.32C147.478 43.12 147.585 44.1867 147.585 45.52V56.28C147.585 57.3733 147.771 58.1333 148.145 58.56C148.518 58.96 149.185 59.16 150.145 59.16V60C147.371 59.8933 145.611 59.84 144.865 59.84C143.958 59.84 142.225 59.8933 139.665 60V59.16C140.465 59.16 141.025 58.96 141.345 58.56C141.665 58.1333 141.825 57.3733 141.825 56.28V43.84C141.825 42.7467 141.638 41.92 141.265 41.36C140.918 40.8 140.278 40.52 139.345 40.52C138.225 40.52 137.278 40.96 136.505 41.84C135.758 42.6933 135.385 43.7867 135.385 45.12V56.28C135.385 57.3733 135.545 58.1333 135.865 58.56C136.185 58.96 136.745 59.16 137.545 59.16V60C134.985 59.8933 133.331 59.84 132.585 59.84C131.678 59.84 129.838 59.8933 127.065 60V59.16C127.998 59.16 128.651 58.96 129.025 58.56C129.425 58.1333 129.625 57.3733 129.625 56.28V33.52C129.625 32.2933 129.425 31.4 129.025 30.84C128.651 30.28 127.998 30 127.065 30V29.16C127.918 29.24 128.745 29.28 129.545 29.28C131.865 29.28 133.811 29.0933 135.385 28.72V42.48Z" fill="white"/>
</svg>
